<svg width="32" height="32" viewBox="0 0 200 200" fill="none" xmlns="http://www.w3.org/2000/svg">
  <!-- 1. DISCO DE VINIL -->
  <circle cx="100" cy="100" r="85" fill="#131316" stroke="#27272a" strokeWidth="2" />
  <circle cx="100" cy="100" r="72" stroke="rgba(255, 255, 255, 0.05)" strokeWidth="1" strokeDasharray="4 2" />
  <circle cx="100" cy="100" r="60" stroke="rgba(255, 255, 255, 0.03)" strokeWidth="1" />
  <circle cx="100" cy="100" r="48" stroke="rgba(255, 255, 255, 0.02)" strokeWidth="1" />
  <circle cx="100" cy="100" r="28" fill="#1c1917" stroke="rgba(255, 255, 255, 0.08)" strokeWidth="1" />

  

  <circle cx="100" cy="100" r="4" fill="#09090b" />

  <!-- 3. AS 5 ESTRELAS EM PONTAS -->
  <g fill="#f59e0b">
    <path d="M 100,26 Q 100,23 97,23 Q 100,23 100,20 Q 100,23 103,23 Q 100,23 100,26 Z" />
    <path d="M 167,74 Q 167,71 164,71 Q 167,71 167,68 Q 167,71 170,71 Q 167,71 167,74 Z" />
    <path d="M 141,154 Q 141,151 138,151 Q 141,151 141,148 Q 141,151 144,151 Q 141,151 141,154 Z" />
    <path d="M 59,154 Q 59,151 56,151 Q 59,151 59,148 Q 59,151 62,151 Q 59,151 59,154 Z" />
    <path d="M 33,74 Q 33,71 30,71 Q 33,71 33,68 Q 33,71 36,71 Q 33,71 33,74 Z" />
  </g>
</svg>
